<svg width="168" height="42" viewBox="0 0 168 42" fill="none" xmlns="http://www.w3.org/2000/svg">
<path d="M16.5262 32.5282H12.8931V30.6588H22.0386V32.5282H18.4054V41.7508H16.4009V32.5282H16.5262ZM31.0589 41.7508H24.4189V30.6588H30.8083V32.5282H26.2982V35.27H30.3072V37.1395H26.2982V40.006H30.9336V41.7508H31.0589ZM40.7055 30.6588H42.9606L39.2021 36.0178L43.0859 41.6261H40.8308L37.9493 37.5134L35.0679 41.6261H32.8128L36.6965 36.0178L32.9381 30.6588H35.1931L37.9493 34.6469L40.7055 30.6588ZM54.4865 41.7508H52.482V37.0149H47.4707V41.7508H45.4662V30.6588H47.4707V35.1454H52.6073V30.6588H54.4865V41.7508ZM57.3679 36.2671C57.3679 34.6469 57.8691 33.276 58.9966 32.1543C60.1241 31.0327 61.5022 30.5341 63.1309 30.5341C64.7595 30.5341 66.1376 31.0327 67.2652 32.1543C68.3927 33.276 68.8938 34.6469 68.8938 36.2671C68.8938 37.8873 68.3927 39.2582 67.2652 40.3798C66.1376 41.5015 64.7595 42 63.1309 42C61.5022 42 60.1241 41.5015 58.9966 40.3798C57.8691 39.2582 57.3679 37.8873 57.3679 36.2671ZM59.3724 36.2671C59.3724 37.3887 59.7483 38.2611 60.3747 39.0089C61.0011 39.7567 62.0033 40.1306 63.0056 40.1306C64.1331 40.1306 65.0101 39.7567 65.7618 39.0089C66.3882 38.2611 66.764 37.3887 66.764 36.2671C66.764 35.1454 66.3882 34.1484 65.6365 33.5252C64.8848 32.7775 64.0078 32.4036 63.0056 32.4036C61.8781 32.4036 61.0011 32.7775 60.3747 33.5252C59.7483 34.1484 59.3724 35.1454 59.3724 36.2671ZM79.9186 41.7508H78.0394V32.5282H74.7821L74.5315 34.6469C74.4062 35.8932 74.2809 37.0149 74.0304 37.8873C73.7798 38.7597 73.6545 39.5074 73.4039 40.006C73.1534 40.5045 72.9028 41.003 72.527 41.2522C72.1511 41.5015 71.9006 41.7508 71.5247 41.7508C71.1489 41.8754 70.773 41.8754 70.2719 41.7508V39.8813C70.5225 39.8813 70.6478 39.8813 70.8983 39.8813C71.0236 39.8813 71.2742 39.6321 71.3995 39.3828C71.65 39.1335 71.7753 38.7597 71.9006 38.2611C72.2764 37.1395 72.527 35.3947 72.7775 32.9021L72.9028 30.6588H79.9186V41.7508ZM82.8 36.2671C82.8 34.6469 83.3012 33.276 84.4287 32.1543C85.5562 31.0327 86.9343 30.5341 88.563 30.5341C90.1917 30.5341 91.5698 31.0327 92.6973 32.1543C93.8248 33.276 94.3259 34.6469 94.3259 36.2671C94.3259 37.8873 93.8248 39.2582 92.6973 40.3798C91.5698 41.5015 90.1917 42 88.563 42C86.9343 42 85.5562 41.5015 84.4287 40.3798C83.3012 39.2582 82.8 37.8873 82.8 36.2671ZM84.9298 36.2671C84.9298 37.3887 85.3057 38.2611 85.9321 39.0089C86.5585 39.7567 87.5608 40.1306 88.563 40.1306C89.6905 40.1306 90.5675 39.7567 91.3192 39.0089C91.9456 38.2611 92.3214 37.3887 92.3214 36.2671C92.3214 35.1454 91.9456 34.1484 91.1939 33.5252C90.4422 32.7775 89.5653 32.4036 88.563 32.4036C87.4355 32.4036 86.5585 32.7775 85.9321 33.5252C85.1804 34.1484 84.9298 35.1454 84.9298 36.2671ZM99.2119 41.7508H97.2074V30.6588H103.471V32.5282H99.2119V41.7508ZM108.107 41.7508H106.102V30.6588H108.107V41.7508ZM110.988 28.7893C110.988 28.5401 111.114 28.2908 111.239 28.0416C111.489 27.9169 111.74 27.7923 111.991 27.7923C112.241 27.7923 112.492 27.9169 112.742 28.0416C112.993 28.1662 112.993 28.4154 112.993 28.7893C112.993 29.1632 112.868 29.4125 112.742 29.5371C112.617 29.6617 112.366 29.7864 111.991 29.7864C111.74 29.7864 111.489 29.6617 111.239 29.5371C111.114 29.2878 110.988 29.0386 110.988 28.7893ZM114.246 41.7508H112.241V30.6588H114.246V41.7508ZM113.619 28.7893C113.619 28.5401 113.745 28.2908 113.87 28.0416C114.12 27.9169 114.371 27.7923 114.622 27.7923C114.872 27.7923 115.123 27.9169 115.373 28.0416C115.624 28.2908 115.624 28.4154 115.624 28.7893C115.624 29.1632 115.498 29.4125 115.373 29.5371C115.248 29.7864 114.997 29.7864 114.622 29.7864C114.246 29.7864 113.995 29.6617 113.87 29.5371C113.745 29.2878 113.619 29.0386 113.619 28.7893ZM129.906 39.2582L130.658 40.7537C130.282 41.1276 129.781 41.3769 129.154 41.6261C128.528 41.8754 127.776 42 127.15 42C125.396 42 124.018 41.5015 123.015 40.3798C122.013 39.3828 121.387 38.0119 121.387 36.2671C121.387 34.6469 121.888 33.276 122.89 32.1543C123.892 31.0327 125.27 30.5341 127.024 30.5341C128.402 30.5341 129.53 30.908 130.407 31.6558L129.53 33.1513C128.778 32.6528 127.901 32.4036 127.024 32.4036C126.022 32.4036 125.145 32.7775 124.393 33.4006C123.767 34.1484 123.391 35.0208 123.391 36.2671C123.391 37.3887 123.767 38.3858 124.393 39.1335C125.145 39.8813 126.022 40.2552 127.15 40.2552C128.277 40.1306 129.154 39.8813 129.906 39.2582ZM142.183 41.7508H140.304V37.0149H135.168V41.7508H133.163V30.6588H135.168V35.1454H140.304V30.6588H142.183V41.7508ZM153.083 30.6588H155.087L151.329 39.1335C150.953 40.006 150.452 40.6291 150.076 41.1276C149.575 41.5015 149.074 41.7508 148.322 41.7508C147.571 41.7508 147.195 41.6261 146.819 41.2522L147.445 39.6321C147.696 39.7567 147.946 39.8813 148.322 39.8813C148.823 39.8813 149.199 39.6321 149.45 39.1335L149.575 38.7597L144.689 30.6588H146.944L150.577 36.8902L153.083 30.6588Z" fill="#535353"/>
<path d="M10.6449 11.7151L21.4191 24.8012H14.5286L5.88417 13.9585V24.8012H0.49707V0.249263H5.88417V10.2196L14.1527 0.249263H20.7927L10.6449 11.7151ZM120.517 5.35906H128.033V24.8012H133.421V5.35906H140.937V0.249263H120.391V5.35906H120.517ZM36.9539 14.9555L44.5961 24.8012H38.0815L31.6921 16.0772H29.6876V24.8012H24.3005V0.249263H24.9269C26.0545 0.249263 27.3073 0.249263 28.6854 0.249263C30.0635 0.249263 31.191 0.249263 32.068 0.249263C39.5848 0.249263 41.2135 4.48665 41.2135 8.1009C41.2135 9.97033 40.7124 11.5905 39.7101 12.8368C38.8332 13.7092 37.9562 14.457 36.9539 14.9555ZM30.314 5.35906C30.0635 5.35906 29.9382 5.35906 29.6876 5.35906V10.9674H31.6921C32.8197 10.9674 33.8219 10.7181 34.5736 10.095C35.2 9.59644 35.5758 8.84867 35.5758 7.97627C35.5758 6.72998 35.2 5.23443 31.8174 5.23443C31.6921 5.23443 31.5668 5.23443 31.3163 5.23443C31.0657 5.35906 30.6899 5.35906 30.314 5.35906ZM111.872 0.249263L122.271 24.8012H116.508L114.127 18.819H104.982L102.601 24.8012H97.089L107.362 0.249263H111.872ZM109.492 7.72701L106.986 13.7092H111.997L109.492 7.72701ZM167.497 12.5875C167.497 16.2018 166.244 19.3175 163.864 21.6855C161.484 24.0534 158.352 25.2997 154.718 25.2997C151.085 25.2997 147.953 24.178 145.573 21.8101C143.193 19.4421 141.94 16.451 141.94 12.7122C141.94 9.22256 143.193 6.10683 145.573 3.73888C147.953 1.37092 151.085 0.124634 154.718 0.124634C158.352 0.124634 161.484 1.2463 163.864 3.61425C166.244 5.73294 167.497 8.84867 167.497 12.5875ZM159.98 17.9466C161.358 16.451 161.985 14.7062 161.985 12.4629C161.985 10.2196 161.358 8.47478 159.855 6.97923C158.477 5.60831 156.723 4.86054 154.718 4.86054C152.589 4.86054 150.96 5.60831 149.582 6.97923C148.204 8.35015 147.577 10.2196 147.577 12.4629C147.577 14.7062 148.204 16.451 149.582 17.822C150.96 19.3175 152.589 19.9407 154.718 19.9407C156.973 20.0653 158.602 19.4421 159.98 17.9466ZM94.0822 0.249263L87.8181 16.451L81.3035 0.249263H75.5406L85.6884 24.8012H89.6974L99.5946 0.249263H94.0822Z" fill="#535353"/>
<path d="M71.1021 2.49432C69.5949 0.997728 67.5854 0.124716 65.4503 0.124716C63.3152 0.124716 61.3057 0.997728 59.7985 2.49432L59.4217 2.86847L58.9194 2.3696C57.4122 0.873012 55.4027 0 53.2676 0C51.1325 0 49.123 0.873012 47.6158 2.3696C46.1087 3.8662 45.2295 5.86165 45.2295 7.98182C45.2295 10.102 46.1087 12.0975 47.6158 13.594L58.5426 24.4443C58.7938 24.6938 59.045 24.8185 59.4217 24.8185C59.7985 24.8185 60.0497 24.6938 60.3009 24.4443L71.2277 13.594C72.7348 12.0975 73.614 10.102 73.614 7.98182C73.614 5.86165 72.7348 3.99091 71.1021 2.49432Z" fill="#00B5FF"/>
<mask id="mask0_2014_9547" style="mask-type:alpha" maskUnits="userSpaceOnUse" x="45" y="0" width="29" height="25">
<path d="M71.1021 2.49432C69.5949 0.997728 67.5854 0.124716 65.4503 0.124716C63.3152 0.124716 61.3057 0.997728 59.7985 2.49432L59.4217 2.86847L58.9194 2.3696C57.4122 0.873012 55.4027 0 53.2676 0C51.1325 0 49.123 0.873012 47.6158 2.3696C46.1087 3.8662 45.2295 5.86165 45.2295 7.98182C45.2295 10.102 46.1087 12.0975 47.6158 13.594L58.5426 24.4443C58.7938 24.6938 59.045 24.8185 59.4217 24.8185C59.7985 24.8185 60.0497 24.6938 60.3009 24.4443L71.2277 13.594C72.7348 12.0975 73.614 10.102 73.614 7.98182C73.614 5.86165 72.7348 3.99091 71.1021 2.49432Z" fill="#00B5FF"/>
</mask>
<g mask="url(#mask0_2014_9547)">
<rect x="44.2935" y="10.3227" width="30.0675" height="15.0844" fill="#FFBC00"/>
</g>
</svg>
